<?xml version="1.0" encoding="UTF-8"?>
<svg id="Ebene_1" xmlns="http://www.w3.org/2000/svg" version="1.1" viewBox="0 0 35 35">
  <!-- Generator: Adobe Illustrator 30.3.0, SVG Export Plug-In . SVG Version: 2.1.3 Build 182)  -->
  <defs>
    <style>
      .st0 {
        fill: #d4401a;
      }
    </style>
  </defs>
  <path d="M11.7,13.7c0-3.3,2.3-5.9,5.7-5.9s5.9,2.6,5.9,5.9-2.5,6-5.9,6-5.7-2.8-5.7-6M8.1,13.7c0,5.4,3.8,9.3,8.9,9.3s5.1-1.2,6.3-2.8v1.5c0,3.2-2.4,5.4-6,5.4s-4.3-1-5.9-2.9l-2.4,2.4c2,2.5,5,3.8,8.3,3.8,5.9,0,9.7-3.6,9.7-9.1V4.9h-3.7v2.4c-1.3-1.7-3.3-2.8-6.3-2.8-5,0-8.9,3.7-8.9,9.1h0Z"/>
  <path class="st0" d="M17.5,11.6c-1.3,0-2.2.9-2.2,2.2s.9,2.2,2.2,2.2,2.3-.9,2.3-2.2-.9-2.2-2.3-2.2"/>
</svg>